<svg xmlns="http://www.w3.org/2000/svg" viewBox="0 0 800 400" fill="#0D3B66" opacity="0.6">
  <!-- Sumatera -->
  <path d="M80,100 Q90,80 110,70 L130,60 Q140,55 150,65 L160,80 Q165,95 155,110 L140,140 Q130,165 115,185 L100,200 Q90,210 80,200 L70,180 Q60,155 65,130 L70,115 Z" />
  <!-- Jawa -->
  <path d="M200,260 Q220,250 245,248 L280,250 Q310,252 340,255 L360,258 Q375,262 370,272 L355,278 Q330,282 300,280 L260,275 Q230,270 210,268 Q200,268 200,260 Z" />
  <!-- Kalimantan -->
  <path d="M280,100 Q300,80 330,75 L360,78 Q385,85 395,105 L400,130 Q398,155 385,175 L370,190 Q350,200 325,195 L305,185 Q285,170 275,145 L270,120 Q272,108 280,100 Z" />
  <!-- Sulawesi -->
  <path d="M430,110 Q440,95 455,90 L465,95 Q475,105 470,125 L460,145 Q450,155 445,170 L455,180 Q465,185 460,200 L445,210 Q435,215 425,205 L420,190 Q415,170 420,150 L425,130 Z" />
  <!-- Bali & Nusa Tenggara -->
  <path d="M380,265 Q390,260 400,262 L410,265 Q415,268 412,272 L400,275 Q390,273 380,270 Z" />
  <path d="M420,268 Q435,262 455,264 L470,268 Q475,272 468,276 L450,278 Q435,276 425,273 Q420,272 420,268 Z" />
  <path d="M480,270 Q495,265 510,267 L520,270 Q525,274 518,277 L505,278 Q490,276 483,274 Q480,273 480,270 Z" />
  <!-- Maluku -->
  <path d="M530,160 Q540,150 550,155 L555,165 Q558,175 550,185 L540,190 Q530,188 528,178 L530,168 Z" />
  <path d="M560,190 Q570,182 580,188 L585,198 Q582,208 572,212 L565,208 Q558,200 560,190 Z" />
  <!-- Papua -->
  <path d="M600,100 Q620,85 650,80 L680,82 Q710,90 730,110 L740,135 Q745,160 735,185 L720,205 Q700,220 670,225 L645,222 Q625,215 615,195 L605,170 Q595,140 600,115 Z" />
  <!-- Pulau-pulau kecil aksen -->
  <circle cx="175" cy="240" r="4" />
  <circle cx="190" cy="235" r="3" />
  <circle cx="530" cy="220" r="5" />
  <circle cx="550" cy="230" r="3" />
</svg>
